<svg xmlns="http://www.w3.org/2000/svg" viewBox="0 0 185.5 35.1" width="185.4" height="35.059"><path fill="#3c9ad5" d="M108.7 0h76.7v35h-76.7z"/><path fill="#3bc4f3" d="M0 0h108.7v35H0z"/><path d="M15.9 21.8h-1.4v-8.5h1.4v8.5zm10.4-7.4h-2.6v7.4h-1.4v-7.4h-2.6v-1.1h6.7v1.1zm15.9 5l1.3-6.2H45l-2 8.5h-1.3l-1.7-6-1.7 6.1H37l-2-8.5h1.5l1.3 6.1 1.6-6.1h1.3l1.5 6.1zm13.2-1.1c0 1-.3 1.9-1 2.6s-1.5 1-2.6 1c-1 0-1.8-.3-2.5-1s-1-1.5-1-2.6v-1.5c0-1 .3-1.9 1-2.6s1.5-1 2.5-1 1.9.3 2.5 1 1 1.6 1 2.6v1.5zM54 16.8c0-.7-.2-1.3-.6-1.8s-.9-.7-1.5-.7-1.1.2-1.5.7-.5 1-.5 1.8v1.5c0 .7.2 1.3.5 1.8s.9.7 1.5.7c.7 0 1.2-.2 1.5-.7s.6-1 .6-1.8v-1.5zm7 1.5v3.5h-1.4v-8.5h2.9c.9 0 1.7.2 2.2.6s.8 1 .8 1.8c0 .4-.1.8-.3 1.1s-.6.6-1 .8c.5.2.8.4 1 .7s.3.8.3 1.3v.7c0 .3 0 .5.1.7s.2.4.3.5v.1h-1.5c-.2-.1-.3-.3-.3-.6s-.1-.5-.1-.8v-.7c0-.4-.1-.8-.4-1s-.6-.4-1-.4H61zm0-1.2h1.4c.6 0 1-.1 1.2-.3s.4-.6.4-1-.1-.8-.4-1-.7-.4-1.2-.4H61v2.7zm11 1h-.7v3.7h-1.4v-8.5h1.4v3.6h.6l2.8-3.6h1.7l-3.2 4 3.5 4.5h-1.8L72 18.1zm12.6 1.5c0-.4-.1-.6-.4-.9s-.7-.4-1.3-.6c-.9-.3-1.6-.6-2.1-1s-.7-1-.7-1.6c0-.7.3-1.3.8-1.7s1.3-.7 2.1-.7c.9 0 1.7.2 2.2.7s.8 1.2.8 1.9h-1.4c0-.4-.1-.8-.4-1.1s-.7-.4-1.2-.4-.9.1-1.1.3-.4.5-.4.9c0 .3.1.6.4.8s.8.4 1.4.6c.9.3 1.6.6 2 1s.7 1 .7 1.7-.3 1.3-.8 1.7-1.3.6-2.2.6c-.9 0-1.6-.2-2.3-.7s-1-1.1-.9-2h1.4c0 .5.2.9.5 1.2s.8.4 1.3.4.9-.1 1.2-.3.4-.4.4-.8zm6.9 2.2h-1.4v-1.4h1.4v1.4zm44.7-8.4l-2.7 8.4H131l-1.6-5.1-1.7 5.1h-2.5l-2.7-8.4h2.4l1.7 5.4 1.8-5.4h2.2l1.7 5.4 1.8-5.4h2.1zm11.5 0v8.4h-2.4v-3.3h-3.2v3.3h-2.4v-8.4h2.4v3.2h3.2v-3.2h2.4zm8.8 5.4v3h-2.4v-3l-3.2-5.4h2.5l2 3.3 2-3.3h2.3l-3.2 5.4zm8.5-1c.2-.3.4-.5.8-.9l.5-.5c.1-.1.2-.3.2-.5s-.1-.4-.3-.6-.5-.2-.8-.2c-.3 0-.6.1-.9.2-.3.2-.5.4-.6.6l-1.8-1c.3-.6.8-1 1.4-1.3.6-.3 1.3-.5 2.2-.5 1 0 1.7.2 2.3.6s.9 1 .9 1.7c0 .3-.1.6-.2.9-.1.3-.2.5-.4.6l-.6.6c-.3.2-.5.4-.6.6s-.2.4-.2.6h-2.1c-.1-.4 0-.7.2-.9zm-.2 3.7c-.3-.2-.4-.5-.4-.9s.1-.7.4-.9.6-.3 1-.3.7.1 1 .3.4.5.4.9-.1.6-.4.9-.6.4-1 .4-.7-.1-1-.4z" fill="#fff"/></svg>