<svg xmlns="http://www.w3.org/2000/svg" width="115.125" height="35.059"><path fill="#45a4b8" d="M25.083 0h90.042v35H25.083z"/><path fill="#38c1d0" d="M0 .029h63.125v35H0z"/><path d="M82.329 17.644h2.148v3.419a6.036 6.036 0 01-1.692.792 6.463 6.463 0 01-1.908.313 4.71 4.71 0 01-2.316-.57 4.2 4.2 0 01-1.62-1.565 4.33 4.33 0 01-.588-2.244A4.186 4.186 0 0178.639 14a5.1 5.1 0 012.406-.564 5.6 5.6 0 011.92.348 4.965 4.965 0 011.632.948l-1.416 1.7a3.351 3.351 0 00-1.014-.672 2.845 2.845 0 00-1.134-.252 2.026 2.026 0 00-1.086.3 2.1 2.1 0 00-.762.822 2.582 2.582 0 00.006 2.334 2.12 2.12 0 00.774.828 2.055 2.055 0 001.092.3 3.063 3.063 0 001.272-.348zm6.024-4.056h2.5V22h-2.5zm5.916 0h7.392v1.992h-2.448V22H96.7v-6.42h-2.431zm-74.162-.119v5.7a2.771 2.771 0 01-.87 2.153 3.305 3.305 0 01-2.317.794 3.329 3.329 0 01-2.326-.782 2.784 2.784 0 01-.861-2.171v-5.7h1.477v5.7a1.809 1.809 0 00.434 1.3 1.7 1.7 0 001.277.45q1.711 0 1.711-1.8v-5.644zm8.682 6.331a1.03 1.03 0 00-.4-.867 4.759 4.759 0 00-1.427-.615 6.89 6.89 0 01-1.641-.691 2.189 2.189 0 01-1.166-1.91A2.079 2.079 0 0125 14.02a3.4 3.4 0 012.183-.668 3.687 3.687 0 011.588.328 2.606 2.606 0 011.1.935 2.4 2.4 0 01.4 1.345h-1.482a1.321 1.321 0 00-.419-1.037 1.738 1.738 0 00-1.2-.375 1.812 1.812 0 00-1.128.309 1.029 1.029 0 00-.4.864.931.931 0 00.434.779 5.006 5.006 0 001.43.606 6.54 6.54 0 011.6.673 2.544 2.544 0 01.885.867 2.258 2.258 0 01.281 1.146 2.03 2.03 0 01-.817 1.7 3.545 3.545 0 01-2.218.63 4.168 4.168 0 01-1.7-.343 2.859 2.859 0 01-1.207-.946 2.358 2.358 0 01-.431-1.406h1.482a1.38 1.38 0 00.48 1.125 2.1 2.1 0 001.377.4 1.828 1.828 0 001.163-.313 1.011 1.011 0 00.388-.839zM39.2 18.191h-3.5V20.8h4.1V22h-5.589v-8.531h5.537v1.2h-4.054v2.351h3.5zm8.9 1.609a1.03 1.03 0 00-.4-.867 4.759 4.759 0 00-1.427-.615 6.89 6.89 0 01-1.641-.691 2.189 2.189 0 01-1.166-1.91 2.079 2.079 0 01.841-1.7 3.4 3.4 0 012.183-.668 3.687 3.687 0 011.588.328 2.606 2.606 0 011.1.935 2.4 2.4 0 01.4 1.345H48.1a1.321 1.321 0 00-.419-1.037 1.738 1.738 0 00-1.2-.375 1.812 1.812 0 00-1.128.309 1.029 1.029 0 00-.4.864.931.931 0 00.434.779 5.006 5.006 0 001.43.606 6.54 6.54 0 011.6.673 2.544 2.544 0 01.885.867 2.258 2.258 0 01.281 1.146 2.03 2.03 0 01-.817 1.7 3.545 3.545 0 01-2.218.63 4.168 4.168 0 01-1.7-.343 2.859 2.859 0 01-1.207-.946 2.358 2.358 0 01-.431-1.406h1.482a1.38 1.38 0 00.48 1.125 2.1 2.1 0 001.377.4 1.828 1.828 0 001.163-.313 1.011 1.011 0 00.388-.836z" fill="#fff"/></svg>